<svg xmlns="http://www.w3.org/2000/svg" viewBox="0 0 64 64"><g data-name="Layer 2"><rect width="64" height="64" fill="none"/><path fill="#bbbdbf" d="M29.64,24h-10a24.79,24.79,0,0,0,1.67-8.08A23.34,23.34,0,0,0,19.64,8h10s-1.39,2.63-1.39,8S29.64,24,29.64,24Z"/><path fill="#808184" d="M29.64 8h-5V24h5s-1.39-2.63-1.39-8S29.64 8 29.64 8zM29.64 40h-10a24.79 24.79 0 0 0 1.67-8.08A23.34 23.34 0 0 0 19.64 24h10s-1.39 2.63-1.39 8S29.64 40 29.64 40zM29.64 56h-10a24.79 24.79 0 0 0 1.67-8.08A23.34 23.34 0 0 0 19.64 40h10s-1.39 2.63-1.39 8S29.64 56 29.64 56z"/><path fill="#bbbdbf" d="M24.64 56V40h-5a23.34 23.34 0 0 1 1.67 7.92A24.79 24.79 0 0 1 19.64 56zM24.64 40V24h-5a23.34 23.34 0 0 1 1.67 7.92A24.79 24.79 0 0 1 19.64 40z"/><path fill="none" stroke="#404041" stroke-linejoin="round" stroke-width="2" d="M29.64 24h-10a24.79 24.79 0 0 0 1.67-8.08A23.34 23.34 0 0 0 19.64 8h10s-1.39 2.63-1.39 8S29.64 24 29.64 24zM29.64 40h-10a24.79 24.79 0 0 0 1.67-8.08A23.34 23.34 0 0 0 19.64 24h10s-1.39 2.63-1.39 8S29.64 40 29.64 40zM29.64 56h-10a24.79 24.79 0 0 0 1.67-8.08A23.34 23.34 0 0 0 19.64 40h10s-1.39 2.63-1.39 8S29.64 56 29.64 56z"/><path fill="#bbbdbf" d="M44.36,24h-10A24.79,24.79,0,0,0,36,15.92,23.34,23.34,0,0,0,34.36,8h10S43,10.63,43,16,44.36,24,44.36,24Z"/><path fill="#808184" d="M44.36 8h-5V24h5S43 21.37 43 16 44.36 8 44.36 8zM44.36 40h-10A24.79 24.79 0 0 0 36 31.92 23.34 23.34 0 0 0 34.36 24h10S43 26.63 43 32 44.36 40 44.36 40zM44.36 56h-10A24.79 24.79 0 0 0 36 47.92 23.34 23.34 0 0 0 34.36 40h10S43 42.63 43 48 44.36 56 44.36 56z"/><path fill="#bbbdbf" d="M39.36 56V40h-5A23.34 23.34 0 0 1 36 47.92 24.79 24.79 0 0 1 34.36 56zM39.36 40V24h-5A23.34 23.34 0 0 1 36 31.92 24.79 24.79 0 0 1 34.36 40z"/><path fill="none" stroke="#404041" stroke-linejoin="round" stroke-width="2" d="M44.36 24h-10A24.79 24.79 0 0 0 36 15.92 23.34 23.34 0 0 0 34.36 8h10S43 10.63 43 16 44.36 24 44.36 24zM44.36 40h-10A24.79 24.79 0 0 0 36 31.92 23.34 23.34 0 0 0 34.36 24h10S43 26.63 43 32 44.36 40 44.36 40zM44.36 56h-10A24.79 24.79 0 0 0 36 47.92 23.34 23.34 0 0 0 34.36 40h10S43 42.63 43 48 44.36 56 44.36 56z"/><path fill="#bbbdbf" d="M58.57,36.32S53.92,26.55,44.78,32C44.78,32,49,40.39,58.57,36.32Z"/><path fill="none" stroke="#404041" stroke-linejoin="round" stroke-width="2" d="M58.57,36.32S53.92,26.55,44.78,32C44.78,32,49,40.39,58.57,36.32Z"/><path fill="#f1f1f2" d="M56.2,23.18S45.53,21.39,44.78,32C44.78,32,54,33.39,56.2,23.18Z"/><path fill="none" stroke="#404041" stroke-linejoin="round" stroke-width="2" d="M56.2,23.18S45.53,21.39,44.78,32C44.78,32,54,33.39,56.2,23.18Z"/><path fill="#f1f1f2" d="M13.16,26.15S9.53,36.34,19.86,38.94C19.86,38.94,22.83,30.06,13.16,26.15Z"/><path fill="none" stroke="#404041" stroke-linejoin="round" stroke-width="2" d="M13.16,26.15S9.53,36.34,19.86,38.94C19.86,38.94,22.83,30.06,13.16,26.15Z"/><path fill="#bbbdbf" d="M5.54,37.11s6.28,8.81,14.33,1.83C19.86,38.94,14.29,31.43,5.54,37.11Z"/><path fill="none" stroke="#404041" stroke-linejoin="round" stroke-width="2" d="M5.54,37.11s6.28,8.81,14.33,1.83C19.86,38.94,14.29,31.43,5.54,37.11Z"/><line x1="24.21" x2="24.21" y1="45.73" y2="48.64" fill="none" stroke="#fff" stroke-linecap="round" stroke-miterlimit="10" stroke-width="2"/><line x1="24.21" x2="24.21" y1="28.26" y2="40.43" fill="none" stroke="#fff" stroke-linecap="round" stroke-miterlimit="10" stroke-width="2"/></g></svg>