<svg xmlns="http://www.w3.org/2000/svg" xmlns:xlink="http://www.w3.org/1999/xlink" x="0" y="0" version="1.1" viewBox="0 0 48 48" xml:space="preserve"><style type="text/css">.st0{fill:#ffd4c3;stroke:#504b46;stroke-linecap:round;stroke-linejoin:round;stroke-miterlimit:10}.st1{fill:#ffc258}.st2{fill:#4f4b45}.st3{fill:#fabfa5}.st4{fill:none;stroke:#504b46;stroke-linecap:round;stroke-linejoin:round;stroke-miterlimit:10}.st5{opacity:.15;fill:#45413c}.st10{fill:none;stroke:#45413c;stroke-linecap:round;stroke-linejoin:round;stroke-miterlimit:10}.st17{fill:#fff}.st41{fill:#f0f0f0}.st73{fill:#656769}.st74{fill:#87898c}.st75{fill:#e0e0e0}.st76{fill:#bdbec0}.st77,.st78{fill:#656769;stroke:#45413c;stroke-linecap:round;stroke-linejoin:round;stroke-miterlimit:10}.st78{fill:#45413c}.st79{fill:#ffa694}</style><symbol id="New_Symbol_14" viewBox="-6.5 -6.5 13 13"><path fill="#FFD4C3" stroke="#504B46" stroke-linecap="round" stroke-linejoin="round" stroke-miterlimit="10" d="M0-6c2.2 0 4.1 1.5 4.7 3.5C6.3-2.5 6.4 0 5 0v1c0 2.8-2.2 5-5 5s-5-2.2-5-5V0c-1.4 0-1.3-2.5.2-2.5C-4.1-4.5-2.2-6 0-6z" class="st0"/><circle cx="-1.6" cy="-.1" r=".1" fill="#FFC258" class="st1"/><path fill="#4F4B45" d="M-1.6.5c-.3 0-.6-.3-.6-.6s.2-.7.6-.7c.3 0 .6.3.6.7s-.3.6-.6.6z" class="st2"/><circle cx="1.6" cy="-.1" r=".1" fill="#FFC258" class="st1"/><path fill="#4F4B45" d="M1.6.5C1.3.5 1 .2 1-.1s.3-.6.6-.6.6.3.6.6-.2.6-.6.6z" class="st2"/><circle cx="-3" cy="-1.5" r=".5" fill="#FABFA5" class="st3"/><circle cx="3" cy="-1.5" r=".5" fill="#FABFA5" class="st3"/><path fill="none" stroke="#504B46" stroke-linecap="round" stroke-linejoin="round" stroke-miterlimit="10" d="M-1.2-3c.8-.5 1.7-.5 2.5 0" class="st4"/></symbol><g id="Icons"><g id="XMLID_1315_"><ellipse id="XMLID_1328_" cx="24" cy="45" fill="#45413C" class="st5" opacity=".15" rx="15.5" ry="1.7"/><ellipse id="XMLID_1298_" cx="35.1" cy="10.8" fill="#656769" class="st73" rx="10" ry="8.9" transform="matrix(0.5813 -0.8137 0.8137 0.5813 5.8823 33.0741)"/><path id="XMLID_1297_" fill="#87898C" d="M27.9 7.9c3.2-4.5 9-5.8 13-3 2 1.4 3.1 3.6 3.4 5.9.3-3.2-.8-6.3-3.4-8.2-4-2.8-9.8-1.5-13 3-1.6 2.3-2.3 4.9-2 7.3.2-1.6.8-3.4 2-5z" class="st74"/><ellipse id="XMLID_1296_" cx="35.1" cy="10.8" fill="none" stroke="#45413C" stroke-linecap="round" stroke-linejoin="round" stroke-miterlimit="10" class="st10" rx="10" ry="8.9" transform="matrix(0.5813 -0.8137 0.8137 0.5813 5.8823 33.0741)"/><ellipse id="XMLID_1295_" cx="34.9" cy="10.8" fill="#E0E0E0" class="st75" rx="6.8" ry="6.1" transform="matrix(0.5813 -0.8137 0.8137 0.5813 5.8203 32.9535)"/><ellipse id="XMLID_1294_" cx="13.1" cy="10.8" fill="#656769" class="st73" rx="8.9" ry="10" transform="matrix(0.8137 -0.5813 0.5813 0.8137 -3.8553 9.6136)"/><path id="XMLID_1293_" fill="#87898C" d="M7.3 4.9c4-2.8 9.8-1.5 13 3 1.1 1.6 1.8 3.4 2 5.1.3-2.4-.4-5.1-2-7.3-3.2-4.5-9-5.8-13-3-2.6 1.8-3.7 5-3.4 8.2.2-2.4 1.4-4.6 3.4-6z" class="st74"/><ellipse id="XMLID_1292_" cx="13.1" cy="10.8" fill="none" stroke="#45413C" stroke-linecap="round" stroke-linejoin="round" stroke-miterlimit="10" class="st10" rx="8.9" ry="10" transform="matrix(0.8137 -0.5813 0.5813 0.8137 -3.8553 9.6136)"/><ellipse id="XMLID_1291_" cx="13.2" cy="10.8" fill="#E0E0E0" class="st75" rx="6.1" ry="6.8" transform="matrix(0.8137 -0.5813 0.5813 0.8137 -3.8277 9.6997)"/><path id="XMLID_1290_" fill="#BDBEC0" d="M30 9.8c2.2-3.1 6.2-4 8.9-2 1.2.9 1.9 2.2 2.2 3.6.4-2.4-.3-4.7-2.2-6.1-2.7-1.9-6.7-1-8.9 2-1.2 1.7-1.6 3.7-1.3 5.5.2-1 .6-2.1 1.3-3z" class="st76"/><path id="XMLID_1289_" fill="#BDBEC0" d="M9.3 7.8c2.7-1.9 6.7-1 8.9 2 .7.9 1.1 2 1.3 3 .3-1.8 0-3.8-1.3-5.5-2.2-3.1-6.2-4-8.9-2C7.4 6.6 6.6 9 7 11.4c.3-1.5 1-2.8 2.3-3.6z" class="st76"/><ellipse id="XMLID_1277_" cx="34.9" cy="10.8" fill="none" stroke="#45413C" stroke-linecap="round" stroke-linejoin="round" stroke-miterlimit="10" class="st10" rx="6.8" ry="6.1" transform="matrix(0.5813 -0.8137 0.8137 0.5813 5.8203 32.9535)"/><ellipse id="XMLID_1263_" cx="13.2" cy="10.8" fill="none" stroke="#45413C" stroke-linecap="round" stroke-linejoin="round" stroke-miterlimit="10" class="st10" rx="6.1" ry="6.8" transform="matrix(0.8137 -0.5813 0.5813 0.8137 -3.8277 9.6997)"/><path id="XMLID_1262_" fill="#F0F0F0" d="M44.8 25.2C43 13.8 34.2 5.5 24 5.5c-10.2 0-19 8.3-20.8 19.7-1.2 7.8 4.1 15 11.1 15H16c1.9 1.6 4.7 2.7 7.9 2.7s6-1 7.9-2.7h2c6.9 0 12.2-7.2 11-15z" class="st41"/><path id="XMLID_1261_" fill="#FFF" d="M3.2 29.6C5 18.2 13.8 9.9 24 9.9c10.2 0 19 8.3 20.8 19.7.2-1.4.2-2.9 0-4.4C43 13.8 34.2 5.5 24 5.5c-10.2 0-19 8.3-20.8 19.7-.2 1.5-.2 3 0 4.4z" class="st17"/><path id="XMLID_1260_" fill="none" stroke="#45413C" stroke-linecap="round" stroke-linejoin="round" stroke-miterlimit="10" d="M44.8 25.2C43 13.8 34.2 5.5 24 5.5c-10.2 0-19 8.3-20.8 19.7-1.2 7.8 4.1 15 11.1 15H16c1.9 1.6 4.7 2.7 7.9 2.7s6-1 7.9-2.7h2c6.9 0 12.2-7.2 11-15z" class="st10"/><path id="XMLID_1259_" fill="#656769" stroke="#45413C" stroke-linecap="round" stroke-linejoin="round" stroke-miterlimit="10" d="M27.9 32.5c0 1.1-1.7 3-3.9 3s-3.9-1.8-3.9-3c0-1.1 1.7-2 3.9-2s3.9.8 3.9 2z" class="st77"/><path id="XMLID_1258_" fill="#656769" stroke="#45413C" stroke-linecap="round" stroke-linejoin="round" stroke-miterlimit="10" d="M28.1 20.1c-.9 5.1 3.1 7.7 6.1 8.8 3.1 1.2 4.8-1 4.8-4.1-.1-3.1-2-7.3-5.4-8.2-3-.7-5.3 2-5.5 3.5z" class="st77"/><path id="XMLID_1257_" fill="#656769" stroke="#45413C" stroke-linecap="round" stroke-linejoin="round" stroke-miterlimit="10" d="M19.8 20.1c.9 5.1-3.1 7.7-6.1 8.8-3.1 1.2-4.8-1-4.8-4.1.1-3.1 2-7.3 5.4-8.2 3-.7 5.2 2 5.5 3.5z" class="st77"/><circle id="XMLID_1256_" cx="31.8" cy="22.1" r="1.7" fill="#45413C" stroke="#45413C" stroke-linecap="round" stroke-linejoin="round" stroke-miterlimit="10" class="st78"/><circle id="XMLID_1255_" cx="16.2" cy="22.1" r="1.7" fill="#45413C" stroke="#45413C" stroke-linecap="round" stroke-linejoin="round" stroke-miterlimit="10" class="st78"/><circle id="XMLID_1254_" cx="41.4" cy="29.7" r="2" fill="#FFA694" class="st79"/><circle id="XMLID_1252_" cx="6.6" cy="29.7" r="2" fill="#FFA694" class="st79"/><path id="XMLID_1251_" fill="none" stroke="#45413C" stroke-linecap="round" stroke-linejoin="round" stroke-miterlimit="10" d="M24 35.4v2.2" class="st10"/></g></g><metadata><rdf:RDF xmlns:dc="http://purl.org/dc/elements/1.1/" xmlns:rdf="http://www.w3.org/1999/02/22-rdf-syntax-ns#" xmlns:rdfs="http://www.w3.org/2000/01/rdf-schema#"><rdf:Description about="https://iconscout.com/legal#licenses" dc:date="2017-09-21" dc:description="panda,animal" dc:format="image/svg+xml" dc:language="en" dc:publisher="Iconscout" dc:title="panda,animal"><dc:creator><rdf:Bag><rdf:li>Vincent Le Moign</rdf:li></rdf:Bag></dc:creator></rdf:Description></rdf:RDF></metadata></svg>
